<svg xmlns="http://www.w3.org/2000/svg" width="88" height="18" viewBox="0 0 88 18">
    <g fill="#FFF">
        <path d="M10.54 15.5l1.163.773c.224.153.322.434.244.694-.078.26-.315.44-.587.445h-.11c-.192-.019-.379-.073-.551-.16l-.956-.612.38-.49.417-.637v-.012zm-8.22-1.739c-.017.073-.03.147-.037.22-.193.089-.421.007-.514-.183-.515-1.066.906-3.381 2.131-3.21.162.027.287.156.306.319l-.637.98-.894 1.409-.196.232-.16.233zm2.315 1.397c-.083.115-.145.243-.184.38-.367.258-.857.258-1.225 0-.463-.316-.603-.938-.318-1.421l.294-.466c.563-.931 1.2-1.862 1.788-2.805.086-.117.19-.22.306-.306.334-.24.782-.24 1.115 0l.172.122c.323.23.482.628.404 1.017-.126.089-.234.201-.319.33l-2.033 3.149zm3.54-2.99c.386.216.532.698.331 1.091-.343.6-1.85 3.136-2.12 3.381-.217.172-.501.235-.771.171-.255-.06-.464-.242-.562-.485-.097-.244-.07-.52.072-.74l2.082-3.111c.201-.33.614-.46.968-.306zm1.605 1.606c.301.229.448.607.38.98-.352.694-.762 1.358-1.225 1.984-.177.308-.47.532-.813.621-.343.09-.708.038-1.013-.143-.056-.039-.1-.095-.122-.16.588-.71 2.107-3.356 2.107-3.356.185-.092.403-.092.588 0l.098.074zm7.656-1.568c.027.186-.022.375-.134.526-.036.085-.096.157-.172.209-.056.054-.123.096-.196.122h-.441c-.07-.016-.137-.045-.196-.086l-1.164-.87-3.099-2.302c-.048-.012-.099-.012-.147 0h-.11c-.045.022-.083.056-.11.098-.028.036-.049.078-.062.122v.086c.016.088.064.166.135.22l2.487 2.01 1.372.98c.234.168.378.434.392.722.007.176-.035.35-.123.502l-.135.184c-.035.04-.076.072-.122.098h-.061l-.147.061h-.564l-.232-.11-2.781-2.009-1.397-1.005c-.052-.012-.107-.012-.159 0-.036-.01-.074-.01-.11 0-.044.019-.082.048-.11.086-.045.093-.045.201 0 .294.023.065.066.12.122.16l3.601 2.572c.209.139.344.364.368.613.026.243-.05.487-.208.673-.065.07-.14.133-.22.184-.082.04-.169.068-.258.086H13.1c-.095-.029-.186-.07-.27-.123l-1.813-1.225-.208-.159c.106-.69-.226-1.372-.833-1.715l-.098-.061c-.208-.135-.45-.207-.698-.208.018-.126.018-.254 0-.38.007-.02.007-.042 0-.062.004-.044.004-.09 0-.134-.137-.324-.384-.59-.698-.748-.199-.097-.417-.147-.637-.147h-.16c-.011-.529-.275-1.02-.71-1.322l-.172-.123c-.278-.201-.612-.313-.955-.319-.345-.003-.682.109-.956.319-.123.079-.242.165-.355.257-.153-.206-.383-.343-.637-.38h-.196c-.87.089-1.646.59-2.083 1.348-.65-.532-1.139-1.237-1.408-2.034C.115 9.082.115 8.935.115 8.8c-.033-.157-.053-.317-.062-.478-.04-.92.251-1.824.821-2.548l.71-.857c.7-.832 1.731-1.312 2.818-1.311.135-.011.27-.011.404 0l-.404.294c-.157.136-.304.284-.44.441-.08.098-.153.2-.221.306-.077.132-.138.272-.184.417-.079.284-.079.585 0 .87.03.144.08.284.147.416.114.215.263.41.441.576.204.204.457.352.735.428h.245l.282-.098c.28-.004.557-.053.82-.147.189-.061.373-.135.552-.22h.245l.392-.16c.49-.166 1.002-.257 1.519-.269.712.013 1.4.268 1.947.723l.454.33c.27.209.551.454.906.773l1.654 1.225 3.307 2.388c.041.038.087.07.135.098.04.066.073.136.098.209zm.846-2.953c.31.023.622.015.93-.024-.028.27-.081.536-.159.796-.15.426-.344.837-.576 1.225-.033.08-.094.145-.171.184-.06.037-.126.062-.196.073h-.257c-.078-.019-.15-.057-.209-.11l-4.973-3.602-.502-.44-.466-.38c-.733-.707-1.702-1.118-2.72-1.152-.578.014-1.152.113-1.702.294l-.576.233-.49.208c-.257.107-.53.17-.808.184-.477-.006-.907-.288-1.103-.723-.128-.236-.154-.515-.073-.772.03-.112.075-.219.135-.318l.159-.22.147-.147c.271-.26.576-.483.906-.662l.441-.27.674-.281c.4-.168.81-.315 1.225-.441l.33-.086c.32-.086.626-.208.907-.208l.49-.074c.127-.01.254-.01.38 0h.514c.826.2 1.618.518 2.353.943l.33.16c-.012.183-.012.367 0 .551.007 2.791 2.268 5.053 5.06 5.06z" transform="translate(.2)"/>
        <path d="M22.275 4.194c0-2.212-1.793-4.006-4.006-4.006-2.212 0-4.005 1.794-4.005 4.006S16.056 8.2 18.268 8.2h.454c2.033-.232 3.565-1.96 3.552-4.006zm-5.745.196l-1.225-1.225 2.07-.257.919-1.85.906 1.85 2.046.294-1.421 1.445.343 2.034-1.825-.956-1.826.956.343-2.034-.33-.257zM24.553 14.545V3.3h7.914c.623-.011 1.245.059 1.85.208.462.1.887.33 1.225.662.316.343.532.767.624 1.224.133.587.195 1.188.184 1.789v3.504c-.006.603-.084 1.203-.233 1.788-.093.457-.309.88-.624 1.225-.338.332-.763.56-1.225.662-.605.149-1.227.219-1.85.208l-7.864-.025zm9.519-7.264c.007-.292-.021-.585-.086-.87-.04-.208-.132-.402-.27-.563-.148-.14-.329-.242-.526-.294-.269-.066-.545-.095-.821-.086h-5.586v6.934h5.586c.264.006.528-.023.784-.086.198-.044.38-.141.527-.282.14-.158.241-.347.294-.551.07-.289.103-.585.098-.882V7.28zm7.607 7.264c-.615.011-1.229-.059-1.825-.208-.463-.1-.887-.33-1.225-.662-.312-.345-.524-.768-.613-1.225-.133-.59-.195-1.195-.183-1.8V7.158c-.011-.6.05-1.201.183-1.788.088-.457.3-.88.613-1.225.338-.332.762-.56 1.225-.661.596-.15 1.21-.22 1.825-.209h6.909v2.156h-6.909c-.264-.008-.528.021-.784.086-.188.05-.358.152-.49.294-.131.15-.22.331-.257.527-.043.271-.064.546-.062.82v.76h8.502v1.997h-8.502v.784c-.002.283.018.565.062.845.038.193.122.373.245.527.131.138.302.233.49.27.262.053.529.078.796.073h6.97v2.131h-6.97zM60.25 11.96h-6.934l-1.42 2.585h-2.56L55.13 4.157c.165-.296.38-.561.636-.784.635-.423 1.461-.423 2.095 0 .256.22.468.486.625.784l5.77 10.388h-2.573L60.25 11.96zm-5.892-1.935h4.826l-2.45-4.435-2.376 4.435zm14.063 4.52c-.615.011-1.229-.059-1.826-.208-.462-.1-.887-.33-1.224-.662-.308-.348-.519-.77-.613-1.225-.133-.59-.195-1.195-.184-1.8V3.3h2.205v7.35c-.007.28.022.56.086.833.046.208.143.402.282.563.152.153.342.263.551.319.284.07.577.103.87.098h5.929v2.144l-6.076-.062zm6.982 0v-2.07h7.583c.302.023.603-.04.87-.184.2-.203.296-.488.257-.771v-.613c.026-.275-.068-.547-.257-.747-.253-.167-.555-.245-.858-.22h-4.753c-.467.008-.933-.05-1.384-.172-.676-.18-1.187-.733-1.31-1.421-.088-.403-.129-.814-.123-1.225v-.65c-.012-.494.042-.989.159-1.47.08-.362.248-.698.49-.98.24-.255.545-.441.882-.539.396-.124.81-.186 1.225-.183h7.901V5.43h-7.631c-.272-.023-.543.056-.76.22-.191.257-.275.578-.233.895v.367c-.027.269.052.537.22.748.215.17.488.25.76.22h4.668c.474-.005.947.048 1.408.16.351.086.676.259.944.502.251.246.433.554.526.894.117.423.17.86.16 1.299v.894c.007.45-.05.9-.172 1.335-.093.343-.274.656-.527.906-.27.24-.594.411-.943.503-.46.122-.933.18-1.409.171h-7.693z" transform="translate(.2)"/>
    </g>
</svg>
