<svg xmlns="http://www.w3.org/2000/svg" width="71" height="20" viewBox="0 0 71 20">
    <g fill="#FFF">
        <g>
            <path d="M1.824 7.232v4.748h-1.8V4.14c-.012-.641.05-1.281.185-1.908.098-.471.32-.909.645-1.269.336-.338.76-.58 1.225-.7C2.706.101 3.352.026 4 .04h7.113V1.8H4c-.617-.064-1.231.137-1.686.552-.376.536-.549 1.184-.489 1.832v1.297h7.03v1.752l-7.032-.002zM16.341 11.98c-.645.014-1.29-.06-1.914-.219-.467-.118-.892-.361-1.227-.701-.324-.357-.545-.792-.642-1.26-.136-.63-.199-1.272-.188-1.916V4.139c-.01-.64.053-1.28.188-1.907.096-.471.318-.909.642-1.269.337-.34.76-.581 1.227-.7.625-.161 1.268-.236 1.914-.222h3.939c.651-.014 1.301.06 1.932.221.465.12.889.363 1.224.701.325.36.547.798.644 1.27.135.626.197 1.266.185 1.906v3.745c.013.644-.05 1.286-.185 1.916-.098.469-.32.903-.644 1.26-.335.34-.759.582-1.224.702-.631.159-1.281.232-1.932.219h-3.939zm6.124-7.851c.008-.382-.027-.764-.103-1.138-.047-.266-.167-.514-.345-.719-.182-.184-.415-.312-.67-.367-.347-.078-.701-.113-1.056-.106h-3.946c-.378-.009-.756.027-1.126.106-.253.052-.484.18-.66.367-.167.208-.275.456-.31.719-.057.377-.084.757-.08 1.138v3.75c-.005.399.022.797.08 1.19.034.262.141.508.31.712.178.18.409.303.66.35.37.072.749.104 1.126.096h3.946c.355.007.709-.025 1.056-.096.253-.05.486-.172.67-.35.18-.201.3-.447.345-.711.077-.392.112-.791.103-1.19V4.128zM29.994 11.98c-.647.014-1.292-.06-1.919-.219-.465-.12-.889-.362-1.224-.701-.324-.357-.546-.792-.644-1.26-.135-.63-.198-1.273-.186-1.916V4.139c-.01-.64.052-1.28.186-1.907.097-.471.32-.909.644-1.269.336-.338.759-.58 1.224-.7.626-.161 1.272-.236 1.919-.222h3.934c.652-.014 1.302.06 1.933.221.465.12.889.363 1.224.701.325.36.548.797.644 1.27.135.626.198 1.266.187 1.906v3.745c.011.644-.05 1.286-.187 1.916-.097.469-.32.904-.644 1.26-.335.34-.759.582-1.224.702-.63.159-1.281.233-1.933.219h-3.934zm6.123-7.851c.007-.382-.027-.763-.1-1.138-.05-.267-.17-.515-.35-.719-.181-.184-.413-.311-.668-.367-.346-.077-.7-.111-1.056-.103h-3.947c-.377-.01-.754.026-1.123.105-.255.051-.486.18-.663.368-.168.207-.275.455-.308.718-.058.377-.084.757-.08 1.138V7.88c-.005.399.02.797.08 1.19.032.262.14.508.308.712.179.18.41.304.663.35.37.072.746.104 1.123.096h3.947c.354.007.709-.025 1.056-.096.252-.051.484-.173.668-.35.181-.2.302-.447.35-.711.075-.393.108-.792.1-1.19V4.128zM39.751 11.98V.044H48c.653-.014 1.304.06 1.935.222.465.12.889.363 1.226.701.325.36.546.797.644 1.269.132.626.193 1.264.181 1.903v3.745c.011.644-.05 1.286-.186 1.916-.098.468-.32.903-.644 1.26-.337.339-.76.582-1.227.702-.631.159-1.282.232-1.934.219h-8.243zM50.19 4.13c.007-.379-.026-.757-.102-1.129-.049-.263-.17-.509-.349-.71-.184-.187-.419-.318-.676-.378-.348-.082-.706-.119-1.064-.113h-6.444v8.428h6.444c.332.005.663-.027.988-.096.255-.054.489-.179.674-.36.19-.2.326-.444.396-.709.098-.382.142-.775.132-1.168V4.129z" transform="translate(.762) translate(17.238 4)"/>
        </g>
        <g>
            <path d="M14.202 2.547c-.092-.147-.193-.288-.302-.423-.146-.208-.314-.4-.502-.573l-.175-.174-.402-.323L12.42.78l-.226-.124c-.775-.43-1.649-.652-2.536-.647C8.771 0 7.896.224 7.123.656L6.897.78l-.427.274-.401.323-.176.174c-.188.172-.356.364-.502.573-.477.614-.804 1.329-.954 2.09-.08.35-.122.71-.125 1.07.006.531.09 1.06.25 1.567.078.246.17.487.277.722l.25.447.151.2c.086.15.187.291.302.422.217.265.461.507.728.721l.401.299c.133.097.276.18.427.249.775.429 1.648.651 2.535.647.884.003 1.756-.21 2.536-.622l.226-.15c.219-.126.429-.267.628-.423.125-.124.276-.223.376-.348l.351-.373.302-.398.15-.224c.495-.829.755-1.774.754-2.737.012-.964-.249-1.912-.754-2.736m-.628 1.443l-1.958 1.891.452 2.687L9.632 7.3l-2.41 1.268.452-2.687L5.716 3.99l2.71-.398 1.23-2.438 1.206 2.438 2.712.398z" transform="translate(.762) translate(.238)"/>
            <g>
                <path d="M.948 5.153c-.18-.001-.36-.055-.518-.166C.026 4.7-.067 4.145.221 3.744L2.642.384c.288-.4.85-.494 1.254-.208.404.287.497.843.209 1.243l-2.42 3.36c-.177.244-.455.374-.737.374zM6.6 9.104c-.18 0-.361-.054-.518-.166-.404-.286-.497-.842-.21-1.242l2.422-3.36c.288-.401.849-.494 1.253-.208.404.286.498.842.21 1.243L7.336 8.73c-.177.245-.455.374-.736.373zM.968 11.15c-.18-.001-.36-.055-.516-.166-.405-.284-.5-.84-.212-1.241l4.771-6.651c.287-.401.849-.496 1.253-.21.405.285.5.84.212 1.242l-4.771 6.65c-.176.246-.454.376-.737.375z" transform="translate(.762) translate(.238) translate(0 7.64)"/>
            </g>
        </g>
    </g>
</svg>
