<svg xmlns="http://www.w3.org/2000/svg" xmlns:xlink="http://www.w3.org/1999/xlink" width="77" height="18" viewBox="0 0 77 18">
    <defs>
        <path id="prefix__a" d="M0.37 0.055L8.211 0.055 8.211 7.895 0.37 7.895z"/>
    </defs>
    <g fill="none" fill-rule="evenodd">
        <path fill="#FFF" d="M49.11 10.108h5.059l-2.56-4.336-2.498 4.336zm6.126 1.886h-7.241L46.5 14.53h-2.67l6.125-10.168c.174-.294.398-.554.661-.771.675-.408 1.519-.408 2.194 0 .263.217.487.477.66.771l6.04 10.168h-2.695l-1.58-2.536zM40.425 14.53h2.34V3.505h-2.34V14.53zm-3.944 0V7.291l-5.108 7.018c-.248.314-.632.487-1.03.465-.398.022-.782-.151-1.028-.465L24.23 7.291v7.24h-2.12V4.288c-.027-.3.108-.589.356-.76.472-.276 1.045-.322 1.556-.122.177.096.333.229.452.392l5.881 8.244 5.978-8.244c.114-.155.254-.288.416-.392.196-.088.41-.13.624-.123.317-.01.628.076.895.245.25.17.39.46.368.76V14.53h-2.156zm-24.035 0c-.647.014-1.292-.05-1.922-.196-.46-.106-.88-.33-1.225-.65-.32-.318-.546-.722-.65-1.163-.144-.576-.211-1.17-.197-1.765V3.53h2.304v7.143c-.012.284.021.57.097.844.057.206.162.395.306.552.164.143.363.24.577.281.289.065.585.093.882.087h3.516c.295.007.592-.02.882-.087.215-.035.415-.133.575-.281.148-.156.258-.345.318-.552.103-.276.17-.564.197-.857V3.53h2.314v7.227c.013.594-.05 1.187-.183 1.765-.112.441-.34.843-.662 1.164-.345.32-.767.543-1.225.65-.634.146-1.284.21-1.935.195h-3.969zM0 14.53v-2.094h2.524c.297.001.592-.032.882-.1.217-.05.416-.16.576-.317.15-.137.263-.31.33-.503.063-.269.092-.543.087-.82V3.529h2.338v7.227c.008.595-.058 1.187-.195 1.765-.105.441-.33.845-.65 1.164-.347.318-.768.54-1.224.65-.635.145-1.286.21-1.937.195H0zm70.892-.564c.453.007.887.193 1.204.52.318.327.493.765.486 1.22 0 .707-.43 1.344-1.087 1.612-.655.264-1.408.108-1.901-.4-.494-.509-.629-1.265-.344-1.912.284-.648.933-1.06 1.642-1.04zm-8.123 0c.455.007.889.193 1.205.52.318.327.492.765.486 1.22-.001.707-.431 1.344-1.086 1.612-.655.264-1.407.108-1.901-.4-.493-.509-.63-1.265-.346-1.912.285-.648.935-1.06 1.642-1.04zm6.027-4.263c.05-.15.027-.319-.06-.452-.101-.122-.25-.189-.405-.185h-.27c-.161 0-.315.066-.43.18-.112.116-.175.272-.17.433v1.445c0 .291.235.528.526.528.29-.004.533-.216.577-.503l.232-1.446zm-2.671-2.597V5.894c.004-.158-.058-.31-.168-.424-.11-.112-.26-.175-.42-.175h-.82c-.162-.002-.314.071-.416.194-.107.116-.152.275-.122.43l.207 1.225c.059.325.342.563.675.563h.465c.331 0 .599-.269.599-.6zm0 4.018V9.667c0-.332-.268-.6-.6-.6h-.208c-.158-.002-.308.07-.405.195-.105.12-.15.284-.121.441l.245 1.446c.036.29.284.504.575.503.286-.007.514-.24.514-.528zm-2.572.32c.102-.118.141-.278.11-.429l-.22-1.373c-.06-.332-.35-.574-.687-.576h-.317c-.163.006-.313.088-.405.221-.088.12-.119.272-.085.416.121.48.232.895.317 1.225l.062.184c.08.32.368.544.697.54h.087c.17 0 .333-.077.441-.209zm-2.218-4.276c.104.326.42.536.76.502h.465c.156.002.304-.065.405-.184.1-.12.144-.275.122-.429l-.207-1.225c-.06-.327-.34-.568-.674-.575h-.724c-.158 0-.308.071-.406.196-.098.124-.134.287-.095.44l.098.307c.073.294.171.612.256.968zm10.377 2.535c.02-.067.028-.137.024-.207.514-.035 1.02-.155 1.495-.356l-.845 3.075c-.108.453-.514.773-.98.771h-9.25c-.464 0-.864-.319-.968-.771l-2.241-9.127c-.08-.326-.374-.554-.71-.55h-.93c-.327 0-.589-.263-.589-.59.006-.321.265-.58.588-.587h1.763c.465-.006.87.31.98.76l.306 1.225c.089.322.378.547.712.551h5.782c-.075.318-.112.642-.111.968-.018 2.152 1.44 4.036 3.528 4.557-.063.082-.105.18-.123.281l-.22 1.372c-.028.158.017.32.122.441.117.112.281.163.442.136h.22c.33-.01.613-.242.686-.564v-.16c.087-.318.196-.733.32-1.225z"/>
        <g transform="translate(67.2 .645)">
            <mask id="prefix__b" fill="#fff">
                <use xlink:href="#prefix__a"/>
            </mask>
            <path fill="#FFF" d="M4.291.643L3.3 2.652l-2.205.32 1.593 1.553-.368 2.207L4.29 5.69l1.984 1.042-.38-2.207 1.593-1.554-2.205-.319L4.29.643zm0-.588c1.04 0 2.036.413 2.771 1.148.736.735 1.15 1.732 1.15 2.772 0 2.164-1.756 3.92-3.92 3.92C2.125 7.895.37 6.139.37 3.975c0-2.166 1.756-3.92 3.921-3.92z" mask="url(#prefix__b)"/>
        </g>
    </g>
</svg>
